<?xml version="1.0" encoding="UTF-8"?>
<svg xmlns="http://www.w3.org/2000/svg"
     viewBox="0 0 1000 1448">
<g class="glasses" transform="translate(700 270) rotate(25) scale(.5 .5)">
    <circle cx="400" cy="500" r="120" fill="none" stroke="black" stroke-width="20"/>
    <circle cx="700" cy="500" r="120" fill="none" stroke="black" stroke-width="20"/>
    <path d="
      M 472 470
      C 550 461, 550 461, 628 470
      L 628 485
      C 550 494, 550 494, 472 485
      Z
    " fill="black" stroke="black" stroke-width="10"/>
  </g>

  <g transform="translate(0 1160)">
    <path d="M401-786L457-784Q455-778 452-766Q449-754 447-745L447-745Q440-706 432-642Q424-578 419-503Q414-428 414-355L414-355Q414-299 422-240.500Q430-182 443.500-127Q457-72 472-27L472-27L424-12Q410-57 397.500-114.500Q385-172 377-234.500Q369-297 369-354L369-354Q369-407 372.500-463Q376-519 381-572.500Q386-626 391-670.500Q396-715 399-745L399-745Q400-757 400.500-768Q401-779 401-786L401-786ZM306-653L306-653Q390-653 477-658.500Q564-664 645-674Q726-684 791-698L791-698L792-648Q736-639 674.500-631.500Q613-624 549-618.500Q485-613 423-610Q361-607 306-607L306-607Q288-607 259-608.500Q230-610 201.500-611.500Q173-613 154-614L154-614L152-665Q169-662 199.500-659Q230-656 260-654.500Q290-653 306-653ZM660-567L714-553Q712-548 709.500-541Q707-534 704.500-527Q702-520 699-513L699-513Q669-420 627-342Q585-264 535-202.500Q485-141 430-97L430-97Q382-59 328-36.500Q274-14 228-14L228-14Q198-14 173-26.500Q148-39 134-64.500Q120-90 120-127L120-127Q120-178 142-227Q164-276 201.500-320.500Q239-365 287.500-399.500Q336-434 390-456L390-456Q439-475 495.500-486Q552-497 596-497L596-497Q691-497 757.500-464Q824-431 859-376Q894-321 894-256L894-256Q894-202 874.500-154Q855-106 815-66.500Q775-27 713.500 0.500Q652 28 568 42L568 42L539-2Q626-11 694.500-44Q763-77 803.500-131Q844-185 844-259L844-259Q844-311 815-356Q786-401 732-428.500Q678-456 598-456L598-456Q538-456 484.500-441Q431-426 392-409L392-409Q332-384 281.500-338.500Q231-293 200.500-239Q170-185 170-132L170-132Q170-98 187-81Q204-64 234-64L234-64Q272-64 318.500-83.500Q365-103 415-145L415-145Q489-208 552.500-300.500Q616-393 652-525L652-525Q654-531 655.500-538Q657-545 658.500-553Q660-561 660-567L660-567Z"/>
  </g>
</svg>