<svg xmlns="http://www.w3.org/2000/svg" version="1.0" viewBox="0 0 168 168"><path d="M77.3 54.3c-1 1.3-3 2.7-4.4 3-13.7 3.4-19.4 44.1-7.4 53.2 3.5 2.7 11.9 5.5 16.8 5.5 11.9 0 25.9-16.9 26-31.3 0-18.7-2.3-24.5-9.3-23.5-2.1.3-3.5-.1-4.7-1.4-.9-1-2.2-1.8-2.9-1.8s-2.2-1.4-3.4-3c-2.8-3.9-7.9-4.2-10.7-.7m6.2 3.7c.3.6-.1 1.3-1 1.6-1.9.8-3 0-2-1.5.8-1.4 2.2-1.4 3-.1M77 64c1.4 2.5 3.6 2.5 7.8 0 1.8-1.1 3.4-2 3.6-2 1.5 0 6.1 5.5 6.4 7.7.4 3.1 1.7 4.3 4.9 4.3 1.2 0 2.4.8 2.6 1.7 4.5 16.1-6.7 34.7-20.8 34.7-5.9 0-12-2.7-14.9-6.7-2.8-3.9-2.9-22.2-.1-31 2.8-9 8-13.3 10.5-8.7m24.4 3.5c.3.9 0 1.5-.9 1.5-.8 0-1.5-.7-1.5-1.5s.4-1.5.9-1.5 1.1.7 1.5 1.5"/></svg>