<svg xmlns="http://www.w3.org/2000/svg" version="1.0" viewBox="0 0 168 168"><path d="M77.9 56.2c-1.9 2.3-4.6 5.6-6.1 7.4-1.6 1.7-2.8 3.9-2.8 4.8 0 2.9 3.8 1.7 7.3-2.4 1.9-2.2 3.7-4 4.1-4 1.7 0-.2 6.1-2.7 8.5-4 4-2.9 9.9 2.1 11.6.7.2 1.2 3.9 1.3 9 .2 10.3-1.4 12.9-8 12.9-2.6 0-4.1.5-4.5 1.6-1 2.7.4 3.7 4.8 3.1 3.4-.5 4.4-.3 5.4 1.3 1.9 3.1 7.1 2.3 11-1.7 1-.9 2.8-1.1 6.6-.7 4.4.5 5.4.4 6-1.1 1-2.6.1-3.2-5.9-3.8-8.6-.9-10.5-3.2-10.5-13 0-6.8.3-8.3 2.5-11.1 1.4-1.8 2.5-4.2 2.5-5.3s-1.1-3-2.5-4.3c-1.8-1.7-2.5-3.5-2.6-6.4-.3-11-2.7-13-8-6.4m7.9 17.4c.3 2-3.2 4.9-4.8 3.9s-1.1-4.3.8-5.4c2.3-1.4 3.6-.9 4 1.5m.2 30.8c0 .8-.5 1.8-1.1 2.2-1.4.8-3.3-1.1-2.5-2.5 1-1.6 3.6-1.3 3.6.3"/></svg>