<svg xmlns="http://www.w3.org/2000/svg" version="1.0" viewBox="0 0 168 168"><path d="M78.3 54.6c-6.7 2.9-12.5 16.2-7.8 18 2 .8 3.5-1.1 3.5-4.4 0-7.9 11.4-13.3 15.9-7.6 3.9 5 2.6 11.4-2.4 11.4-4.1 0-6.9 3.7-6.2 8.3.4 3.2-6.2 12.8-11.3 16.4-5 3.5-5.8 12-1.4 13.7 1 .4 6 .2 11.1-.5 5.1-.6 11.9-.8 15.1-.5 10.4 1.2 10.6 1.2 11-.7.6-3.1-6-5.1-16.4-5.1l-9 .1-1.3-4-1.2-4 3.7-5.4c2.7-4 4.3-5.3 6.1-5.3 3.6 0 8.7-5.4 8-8.6-.2-1.5.1-3.7.8-5.1 1.6-3 1-9.7-1.2-13-3.3-5-10.5-6.6-17-3.7m12.5 23.1c-.5 2.7-4.8 3-4.8.4 0-1.6.6-2.1 2.6-2.1 1.9 0 2.5.5 2.2 1.7m-16.3 25.4c0 1.5-.7 2.5-1.7 2.7-1.8.4-2.6-3.6-1.1-5.2 1.3-1.2 2.8.1 2.8 2.5"/></svg>