<svg xmlns="http://www.w3.org/2000/svg" version="1.0" viewBox="0 0 168 168"><path d="M74.4 59.2c-3.1 5.1-8.1 12.9-11.1 17.4-6.4 9.9-6.5 10.4-1 10.3 7.2-.2 10.2-1.2 10.2-3.4 0-1.7-.6-1.9-3.4-1.7l-3.4.4 2.3-3.9c2.4-4 9.7-15.5 13.4-21l2.1-3.3.6 2.8c.4 1.5.7 6.9.8 11.9L85 78h5V66.7c0-11.1-1.5-16.7-4-15.2-.5.3-1.1.1-1.5-.5-1.8-2.9-4.6-.7-10.1 8.2"/><path d="M78.4 80.5c-6.9 3-5.1 12.1 2.5 12.7l3.6.3.1 3.3c0 1.9-.8 4.5-1.9 5.9-5.2 6.5-3.3 12.7 4 12.7 6.4 0 9.7-7.5 5.4-12.1-1.8-1.9-2.5-4.6-3.3-12.3l-.3-2.5 7.5-.3c8-.3 10.8-1.5 8.9-3.8-.8-1-3.5-1.4-8.8-1.4-6.4 0-7.9-.3-9.4-2-1.9-2.3-3.9-2.4-8.3-.5m5.3 5.5c-.1 2.1-3.1 2.8-4.2 1-.9-1.5.4-3 2.5-3 1.3 0 1.8.7 1.7 2m5.1 22.2c-.5 3.4-3.8 3.7-3.8.4 0-2 .5-2.6 2.1-2.6 1.5 0 2 .5 1.7 2.2"/></svg>