<svg xmlns="http://www.w3.org/2000/svg" version="1.0" viewBox="0 0 168 168"><path d="M75.3 50.7c-10.2.4-13 1.8-9.9 5.1 3 3.4 2.2 13.7-1.4 17.9-3.8 4.2-4 8.4-.5 11.8 3.1 3.1 5.6 3.2 9.2.1 4.8-4 7.8-4.3 10.6-1 2 2.3 3.3 2.8 7.3 2.9h4.9l1.2 3.5c1.8 5.3 1.5 7.6-1.2 10.8-4.7 5.6-20.4 6.6-24.5 1.6-1.8-2-5-1.8-5 .4 0 9.7 23.1 11.5 32.3 2.5 5.8-5.5 6.2-14 1.2-21.2-1.4-2.1-2.5-4.7-2.5-5.8 0-2.4-4.4-6.3-7.1-6.3-.9 0-3 1-4.6 2.3-3.5 2.9-9.1 3.5-10 1-.4-1-1.2-2.2-2-2.6-.9-.6-1.3-3.3-1.3-9.1v-8.4l11.6-.7c8.8-.5 11.7-1.1 12.1-2.2.9-2.2-1.6-3.3-6.7-3.1-2.5.1-8.6.4-13.7.5m-4.3 28c0 2.8-1.6 4.7-3.4 4-1.6-.6-2.2-3.8-.9-5 1.3-1.4 4.3-.7 4.3 1m20.5 1.8c0 2.2-1.4 2.8-3.4 1.6-1.2-.8-1.3-1.2-.1-2.6 1.6-2 3.5-1.4 3.5 1"/></svg>