<svg xmlns="http://www.w3.org/2000/svg" version="1.0" viewBox="0 0 168 168"><path d="M83 52.6c-8.9 3.8-13.7 9.7-15.1 18.5-.5 3.4-1.6 7.1-2.4 8.3-1.9 2.6-1.9 7.7 0 10.2.8 1.1 1.4 4.2 1.5 7.5 0 11 4.8 16.5 15.3 17.6 9.5 1 16-2.5 20.1-10.5 5.2-10.4 4.5-15.1-3.6-23.5-6.6-6.9-12.1-7.8-14.8-2.6-1.4 2.5-5.6 2.2-9.6-.8l-3.2-2.4 1-4.2C74.1 62 82 55 89.8 55c2.5 0 3.2-.4 3.2-2 0-2.5-4.7-2.7-10-.4m9 29.9c0 1.9-2.7 2.6-4 .9-1.8-2 .6-5 2.6-3.3.8.6 1.4 1.7 1.4 2.4m-19.2.8c.4 2-2.5 3.4-4 1.9s-.1-4.4 1.9-4c1 .2 1.9 1.1 2.1 2.1M83 86.1c0 .5 1.6 1.7 3.6 2.5l3.6 1.5 3.3-1.9c3.6-2.2 4.6-1.9 6.5 1.7 2.2 4.3-1.4 14.7-6.2 17.5-6.4 3.8-20 .9-21.3-4.6-1.6-6.6-.9-12.5 1.6-13.1 1.1-.3 2.3-1.5 2.6-2.6.6-2.2 6.3-3.1 6.3-1"/></svg>