<svg xmlns="http://www.w3.org/2000/svg" version="1.0" viewBox="0 0 168 168"><path d="m71 52.4-6.5 1.1.2 3.2c.4 5.3 2 8.3 4.4 8.3h2.2l-.7-3.9-.6-3.8 4.6-.7c2.6-.3 8.7-.6 13.6-.6H97l-.6 2.7c-1.2 5.5-1.6 6.3-2.9 6.3-3.9 0-6.2 8.3-3 11 2.1 1.7 1.9 2.5-1.5 6.3-3.5 4.1-3.8 7-.8 9.1l2.2 1.5-3.1 6.3c-6.1 12.6-7.6 16.9-6.5 18 1.6 1.6 3.9.3 4.6-2.6 1.2-4.7 8.9-20.1 11.8-23.4 3.3-3.9 3.5-6.4.7-9.1-2.3-2.1-2-5.1.4-5.1 4.3 0 7-8 3.8-11.4l-2.1-2.2 1.3-5.2c1-3.5 1.1-5.4.3-6.2-1.3-1.3-22.2-1.1-30.6.4m26.9 16.5c1.2.8 1.2 1.2.2 2.5-2.4 2.9-6 1.3-4.7-1.9.6-1.7 2.4-1.9 4.5-.6M95 87c0 .5-.9 1-2 1s-2-.5-2-1c0-.6.9-1 2-1s2 .4 2 1"/></svg>