<svg xmlns="http://www.w3.org/2000/svg" version="1.0" viewBox="0 0 168 168"><path d="M74.1 50.9c-6.9 2.8-11.4 10.6-11.3 19.7C62.8 79 70.1 86 79 86c3.2 0 3.3 2 .2 2-3.8.1-12.5 5.5-14.3 9-6.7 12.4 4.2 22.3 23 20.7 11-.9 15.3-4.1 17.2-12.7 1.9-8.4-2.9-14.4-13-16.5-5.7-1.1-7.6-2.9-4.2-4 3.4-1 7.1-4.6 9.2-8.8 1.9-3.6 2-4.6 1-9.6-2.6-13-13.2-19.7-24-15.2M87 56.4c3.1 1.3 7 8.8 7 13.3 0 2.4-1 4.3-3.8 7.3l-3.9 4h-5.2c-8.9 0-13.5-3.7-13.5-10.9.1-12.1 9-18.4 19.4-13.7m8.7 38.4c11.1 5.7 3.8 18.2-10.7 18.2-4.5 0-14.1-3.5-15.7-5.7-7.2-9.7 13.1-19.3 26.4-12.5"/></svg>