<svg xmlns="http://www.w3.org/2000/svg" version="1.0" viewBox="0 0 168 168"><path d="M79 51c-9.1 1.6-16 8.6-16 16.2 0 5.5 4.4 13.1 9 15.7 4.2 2.3 11.9 2.6 16.3.7 1.3-.6 1.7-.3 1.7 1.3 0 1.2-.4 2.1-.9 2.1-3.6 0-5.9 10.1-2.6 11.4 2.3.8 1.8 2.7-2.5 9.9-4.4 7.2-4.9 9.7-2.2 9.7 1.6 0 9.2-12.8 9.2-15.6 0-.6 1.6-2.4 3.5-4.1 3.9-3.5 4.6-7.1 1.9-9.8l-1.7-1.6 1.9-5.7c1-3.1 2.7-6.7 3.7-7.9 2.1-2.4 1.6-7.6-.7-9-.8-.5-2.1-2.2-2.9-4C93.1 53.4 86.3 49.8 79 51m8.8 6.8c3.8 2.5 4.5 4.9 2.2 7.2-2.1 2.1-2.8 8.4-1 9.5 1.4.9 1.2 2.5-.3 2.5-.8 0-2.2.9-3.2 2-5 5.5-17.5-2.5-17.5-11.2 0-9.6 11.5-15.4 19.8-10m8.6 10.5 1.8 1.3-1.6 1.3c-2.1 1.7-4.6.7-4.6-1.9 0-2.3 1.8-2.6 4.4-.7m-3.6 24.4c.2.8-.5 1.3-1.7 1.3s-2.1-.6-2.1-1.6c0-1.8 3.1-1.5 3.8.3"/></svg>