<svg xmlns="http://www.w3.org/2000/svg" version="1.0" viewBox="0 0 168 168"><path d="M65.4 52.6c-.4 1.5-.3 7.7.1 13.8s.9 19.5 1 29.8c.2 13 .6 19.2 1.5 20.2 2.1 2.6 24.1 1.4 31.1-1.7 13.7-6 14.7-18.8 1.8-25.5l-4.4-2.3-12.7.3-12.8.4v-9.3l11.8-.6c9.2-.4 12.8-1 15.8-2.5 8.2-4.2 8.4-12.6.5-19.7-5.3-4.8-7.6-5.4-20.8-5.5H66zM93 56.7c3.3 1.9 7 7.3 7 10.1 0 4.2-4.3 5.7-16.9 5.9-8.2.2-11.7-.1-12.3-1-.4-.6-.8-4.9-.8-9.5v-8.4l10.3.7c5.9.5 11.3 1.4 12.7 2.2m5.6 36.9c2.4 1.3 4.6 3.4 5.7 5.7l1.9 3.8-1.7 2.5c-.9 1.3-3.3 3.2-5.3 4.1-2 .8-4.4 1.9-5.4 2.4-.9.4-5.1.8-9.5.8-4.3.1-8.9.2-10.3.3l-2.5.3-.3-9.4c-.1-5.2.1-9.8.7-10.4 3-3 20.8-3.1 26.7-.1"/></svg>