<svg xmlns="http://www.w3.org/2000/svg" version="1.0" viewBox="0 0 168 168"><path d="M78.2 50.1c-7 1.3-16.2 8.4-16.2 12.4 0 .7-2.1 3-4.6 5l-4.6 3.8.5 4.1c.5 3.7 2.8 6.8 5.8 7.8.6.2.4 1.7-.6 4-.8 2.1-1.5 4.9-1.5 6.4 0 1.4-.9 3.7-2 5.1-3.8 4.9-1.4 11.3 4.3 11.3 1 0 3.4 1.6 5.2 3.5 5.5 5.6 9.4 6.7 21.5 6.2 5.8-.3 12.2-1 14.4-1.7 5-1.5 12.2-8.1 11.3-10.3-.9-2.4-2.1-2.1-5.9 1.3-4.8 4.4-12.3 6.3-22.7 5.8-12.6-.6-17.7-3.9-14.4-9.5l1.5-2.8-1.5-3.8c-1-2.3-2.6-4.1-4.3-4.7-2.3-.9-2.5-1.4-2-4.3.4-1.7.8-4.2.9-5.5.1-1.2.5-2.2.8-2.2s1.8-1.1 3.3-2.5c3.2-3 3.3-6.5.2-10.2-3-3.5-2.3-5.7 3.4-10.6 8.8-7.5 22.9-7.3 29.8.4 3.8 4.2 5.3 4.7 7.2 2.4 1.4-1.7-5.4-8.9-10.6-11.1-3.6-1.5-12.4-1.7-19.2-.3M65 73.9c0 4.1-5.2 5.5-7 2-1.6-2.9.2-4.7 4-4.1q3 .45 3 2.1m-.4 26.5c.8 3.4-.2 4.6-3.7 4.6s-4.3-3.8-.9-4.7c1.1-.3 2-.9 2-1.4 0-2 2-.7 2.6 1.5"/></svg>