<svg xmlns="http://www.w3.org/2000/svg" version="1.0" viewBox="0 0 168 168"><path d="m63.1 49.3-2.4 1.1.7 18.1c.8 22.4 3.5 50.8 4.9 51.7.6.4 1.9.2 2.8-.3 1-.5 3.2-.9 5-.9 8 0 23.2-9.9 26.4-17.2 1.1-2.3 2.9-5.6 4.2-7.1 3.2-3.9 3.1-9.1-.2-12.1-1.4-1.3-2.5-3-2.5-3.9 0-.8-.9-3.6-2-6.2s-2-6.2-2-8.1c0-5.9-4.3-10.4-9.9-10.4-1.1 0-3.6-.9-5.5-1.9-3-1.7-13-4.2-16-4-.6 0-2.2.6-3.5 1.2m15.5 6.2c4.1 1.7 4.6 2.6 3.2 6.2-2.4 6.3 2.1 11.1 9.2 10.1 2.6-.4 3.4 0 4.6 2.3 2 3.9 1.8 5.4-1.1 8.3-1.7 1.7-2.5 3.6-2.5 6.1s.8 4.4 2.5 6.1c3.2 3.2 3.1 3.8-.6 8.6C90 108.1 78.7 114 73.2 114h-3.8l-1.2-16.3c-1.9-25.6-2.5-41.4-1.8-43.2.7-1.9 6.4-1.4 12.2 1m13.8 5.1c1 2.6.7 5.1-.8 6.3-2.1 1.8-5.6-.3-5.6-3.4 0-3.7 5.2-6.1 6.4-2.9m8.4 24.3c2.2 1.4 1.1 6.5-1.5 6.9S95.4 89 97 86c1.2-2.2 1.8-2.4 3.8-1.1"/></svg>