<svg xmlns="http://www.w3.org/2000/svg" version="1.0" viewBox="0 0 168 168"><path d="M62.6 49.8c-.9 1-1.2 2.7-.8 5.4.4 3.2-.1 5.1-2.4 9.3-3.1 5.9-2.5 10.1 1.6 11.2 2.5.7 2.6 4.1.3 5.8-2.5 1.9-2.2 8 .5 10.5l2.2 2.1V106c0 6.6.3 12 .8 12 18.1 1.1 39.3.8 39.9-.6 1.1-2.8-1-3.3-18.1-3.8-9.3-.4-17.1-.7-17.2-.9-.1-.1-.4-4.4-.5-9.5l-.3-9.3 2.6-2.2c1.4-1.2 2.8-3 3.2-4l.6-1.9 12.5.3c12.8.3 14.2 0 13.2-2.5-.8-2-8.2-3-19-2.3-5.4.3-10 0-11.4-.6-2.6-1.2-3.1-4.8-.8-6.7 2.4-2 1.9-7.6-1-9.8-1.9-1.5-2.5-2.9-2.5-6 0-5.1.4-5.2 19.2-5.2 14.7 0 16.4-.4 15.2-3.4-.9-2.3-35.5-2-37.8.2M67 69c0 1-1.9 2.4-3.7 2.6-1.3.2-1.8-3.7-.7-4.9.8-.8 4.4 1.1 4.4 2.3m2 17c0 2.4-2.6 3.8-4.2 2.2S64.6 84 67 84c1.3 0 2 .7 2 2"/></svg>