<svg xmlns="http://www.w3.org/2000/svg" version="1.0" viewBox="0 0 168 168"><path d="M75.8 49c-3.1 3.2-8.3 4.1-10.5 1.9-2.6-2.6-3.3.4-3.3 13.5 0 16.9 2.7 57.2 4 59.7.7 1.1 1.6 1.6 2.6 1.2 1.4-.5 1.6-1.7 1-7.2-.3-3.6-.9-11.9-1.3-18.4L67.7 88l7.4-.1c4.1 0 11.1 0 15.6.1 8.6.1 11.2-1.1 7.8-3.7-1.4-.9-5.8-1.3-16.7-1.3H67l-.2-3.8c-.3-8.2-.3-19.8.1-21 .5-1.9 6.6-1.4 8.5.7 3.6 4 10.2 3.5 13.4-1.1 1.9-2.7 5.6-2.2 9 1.2 1.7 1.6 3.8 3 4.7 3 2.8 0 7.2-2.8 7.8-5 .3-1.2 1.3-2 2.7-2 2.8 0 2.3-3.3-.5-3.9-1.1-.2-3.3-1.4-4.8-2.7-4.5-3.8-11.7-2.3-11.7 2.4 0 1.8-6.9 1.5-7.7-.3-.6-1.8-5.4-4.5-7.8-4.5-.9 0-3 1.3-4.7 3m8.3 4.1c.9 1.7.8 2.5-.4 3.7-2.9 2.8-7.3-1.2-4.7-4.3 1.7-2.1 3.7-1.9 5.1.6m20.3-1.5c2 .8 2.1 3.8.1 5.4-2.1 1.7-4.5.5-4.5-2.3 0-3.5 1.2-4.3 4.4-3.1"/></svg>