<svg xmlns="http://www.w3.org/2000/svg" version="1.0" viewBox="0 0 168 168"><path d="M80.9 50.2c-7.3.9-14.3 5.1-16.6 10-1 2-2.8 4.1-4 4.7-2.6 1.2-3.2 6.6-1.2 10.2 1.3 2.5.5 4.9-2.7 8.5-3.9 4.4-2.6 12.1 2.2 12.8 1.5.2 2.1 1.4 2.5 5.2 1.9 14.3 9.6 20.2 26.6 20.5 17.3.3 25.5-10.4 22.4-28.9-1.8-10.5-1.9-10.6-11.5-9.8-8.3.7-12 2-11.3 3.9.3.8 3 1.1 9 .9l8.5-.3.7 7.4c1.5 16.1-3.4 21.7-19.1 21.7-10.2 0-15-2.4-18.5-9.2-2.8-5.5-3.5-11.5-1.5-13.6 3.8-4.3 2.6-10.7-2.5-12.4-1.9-.6-.1-2.8 2.4-2.8 2.6-.1 5-1.7 6.5-4.7 1.9-3.4 1.4-5.2-1.9-8.2-2.6-2.4-2.9-3.2-2-4.9 2-3.7 8.1-6.5 15.6-7 12.5-.8 19.7 2.6 20.9 9.8.9 6 4.1 5.3 4-.8-.2-9.6-12.3-15.1-28.5-13M68.7 69.6c.8 2-.8 4.8-3.1 5.2-1.7.4-4.1-4.2-3-5.9.9-1.5 5.4-1 6.1.7M64 88.4c0 2.2-1.6 3.6-4.1 3.6-1 0-1.2-4.3-.2-5.3 1.6-1.7 4.3-.6 4.3 1.7"/></svg>