<svg xmlns="http://www.w3.org/2000/svg" version="1.0" viewBox="0 0 168 168"><path d="M101.5 53c-.3.6-.3 3.4 0 6.4.6 4.6.5 5.4-1.2 6-3.6 1.3-7.4 3.8-8 5.2-.3.9-2 1.4-4.7 1.4-2.2 0-7 .5-10.6 1l-6.5.9-2.2-2.7c-1.8-2.2-2.2-4-2.3-9.8 0-5.8-.3-7.3-1.7-7.8-2.4-1-3.3 1.1-3.3 8.4 0 5.6-.4 6.8-2.5 8.9-4.7 4.4-4.2 11.4.9 12.7 2.7.7 3.4 4.3 3.7 19.4.2 10.4.6 12 2.9 12 2.6 0 2.7-1 1.8-17-1.1-20.1-1.2-19.9 14.2-20.7l9.5-.5 1.4 2.5c.8 1.6 2.6 2.9 4.5 3.3 4.3.9 4.6 1.7 4.6 11.5 0 12.7 1.1 21 2.7 21.6 3 1.2 3.3-1.3 2.2-17.6-1-13.2-.9-16.7.1-18.7 2.4-4.3-.3-26.6-3.2-27.2-.9-.2-1.9.2-2.3.8m1.5 18c1.1.7 1.2 1.5.4 3.7-1.3 3.7-5.7 4-6.2.5-.7-4.7 2-6.6 5.8-4.2m-38.2 5.4c-.2 2.3-.8 3.1-2.3 3.1-2.3 0-3.3-3.8-1.5-6 1.9-2.3 4.1-.6 3.8 2.9"/></svg>