<svg xmlns="http://www.w3.org/2000/svg" version="1.0" viewBox="0 0 168 168"><path d="M76.5 50.9c-4.9.7-5.3 3.1-.7 4.5 3.9 1.1 3.6 3.1-1 8.4-4 4.7-3.6 9.1 1 11.1l3.2 1.5v5.2c0 4.3-.5 5.8-2.5 7.8-3.6 3.6-3.2 6.9 1 10.2 2.9 2.2 3.5 3.3 3.5 6.5v3.9h-3.5c-3.1 0-3.5.3-3.5 2.6v2.7l10.5-.6c11.1-.6 12.5-1 12.5-3.2 0-1.7-2.2-2.5-7-2.5h-3.7l-.6-4.3c-.5-3.5-.2-4.6 1.9-6.8 3.2-3.3 3-6.2-.3-8.9-4-3.1-4.9-12.2-1.6-15.8 3.1-3.3 3-7.7-.2-10.6-3.6-3.4-3.4-7.2.6-8 2.2-.4 3-1.1 2.7-2.3-.4-2-5.2-2.5-12.3-1.4m6 17.1c0 2-.6 2.6-2.7 2.8-3.1.4-3.9-2.3-1.6-4.6 2-2 4.3-1 4.3 1.8m2.1 26.9c-.4.6-1.8 1.1-3.2 1.1-2.9 0-3.5-3.6-.6-4.3 2.1-.5 4.7 1.7 3.8 3.2"/></svg>