<svg xmlns="http://www.w3.org/2000/svg" version="1.0" viewBox="0 0 168 168"><path d="M86.8 51.7c-6.1.7-5.1 5.3 1.1 5.3H90v6.1c0 5.3-.3 6.4-2.5 8.1-3.8 3-3.6 9.3.4 11.6 3.4 1.9 4 4.8 3.1 14.3-.5 4.8-1.1 6.6-2.9 8-4 3.3-13 2-10.2-1.5 2.2-2.6.9-6.9-2.6-9.1-1.9-1.2-3.6-3.3-4.1-5-1.4-5-3.6-3.7-4.4 2.5-.3 3-.9 6.7-1.3 8.3-1 3.6.4 5.1 8.2 8.9 5.2 2.5 7.1 2.9 10.4 2.4 9.2-1.5 11.9-6 11.9-20.3.1-7 .5-10.3 1.5-11.7 1.6-2.1 1.1-5.1-1.1-7.4-.9-.9-1.4-3.8-1.4-8.8V56h2.1c1.5 0 2-.5 1.7-2.3-.3-2.4-3.7-2.9-12-2M93 75.5c1.3 1.6.6 3.5-1.5 3.5-1.8 0-2.8-1.7-2.1-3.5.7-1.9 2-1.9 3.6 0M73.7 99.6c.7 1.8-1.7 3.8-3.1 2.4-1.1-1.1-.1-4 1.4-4 .6 0 1.3.7 1.7 1.6"/></svg>