<svg xmlns="http://www.w3.org/2000/svg" version="1.0" viewBox="0 0 168 168"><path d="M59.9 53.2c-.8 1.4-.9 4.9-.5 10.4l.7 8.3L58 74c-2.8 2.8-2.6 7.4.5 9.8l2.5 2v12.3c0 12.8.7 15.6 3.4 14.6 1.4-.5 1.6-2.7 1.6-14.1V85.2l2-.5c1.1-.3 2.5-1.9 3.1-3.6 1.3-3.6 4.2-4.1 7.5-1.3 1.9 1.6 3.3 3.5 11 15.1 5.1 7.8 20.7 23.3 22.7 22.5 3.1-1.2 1.8-3.5-8-13.9-5.4-5.6-11.5-13-13.5-16.3L87 81.1l2.1-1.5c1.1-.8 2.6-3 3.3-5 1.3-3.8 6.5-8 12.6-10.1 2.3-.8 3.5-1.8 3.5-3.1 0-3.1-5.5-2.1-13 2.4-5.6 3.3-7.2 3.9-9.2 3.1-3.7-1.4-4.3-1.2-7.8 2.5-3.7 3.9-9 5.5-11.8 3.4-1.3-1-1.9-3.4-2.4-11-.6-10.1-2.1-12.9-4.4-8.6m27.9 20c.4 2.3-4.3 4.7-5.9 3.1-.6-.6-.8-2.1-.4-3.3.8-2.6 5.8-2.5 6.3.2M65 77.5c2.2 2.6-1.2 4.9-3.7 2.4-1.4-1.4-.6-3.9 1.2-3.9.7 0 1.8.7 2.5 1.5"/></svg>