<svg xmlns="http://www.w3.org/2000/svg" version="1.0" viewBox="0 0 168 168"><path d="M56.7 53.7c-.8.7.2 60.3 1 61.5.2.5 1.8.8 3.5.8s3.9.7 4.9 1.6 3.6 1.8 5.8 2.1c3.6.5 4.4.2 7-2.6 2.5-2.7 3.6-3.1 8.1-3.1h5.3l3.1 3.6c4 4.6 9 4.4 11.9-.6 1.5-2.4 2.5-3 5.2-3 6.2 0 5.8-3.6-.5-4.3-2.2-.2-4.7-1.4-6.2-3-3.7-3.7-7.8-3.6-11.8.3-4.6 4.5-10.4 4.3-14.9-.5-2.5-2.7-4.1-3.5-6.7-3.5-3.7 0-8.4 3.6-8.4 6.5 0 .8-.4 1.5-1 1.5-1.3 0-1.1 2.7-1.6-21-.7-34.4-1.4-39.6-4.7-36.3m19 56.6c1.4 3.1-.6 6-3.9 5.5-2.3-.3-3.5-3.4-2.4-6.4.9-2.3 5.1-1.7 6.3.9m27.3.6c2 3.8-1.6 7.4-4.5 4.5-1.7-1.7-1.8-2.5-.9-4.8.8-2.2 4.1-2 5.4.3"/></svg>