<svg xmlns="http://www.w3.org/2000/svg" version="1.0" viewBox="0 0 168 168"><path d="M109.6 50.5c-1.1.8-3.1 3.8-4.6 6.7s-3.8 7.3-5.1 9.8-3 6.3-3.8 8.5c-2.9 8.6-10.5 13.1-14.5 8.6-1-1.1-3.1-2.3-4.6-2.6-2.6-.6-3.2-1.5-5.6-8.8-6-18.4-8.6-23.2-11.5-21.6l-1.9 1 .2 32.7.3 32.7h4V91.8c0-14.1.3-26 .7-26.3 1.5-1.5 5.2 13.1 5.1 20-.2 8.2 1.2 10.5 6.3 10.5 2.3 0 4-.9 6.1-3 3.4-3.7 6.5-3.8 8.7-.5 1.2 1.8 2.5 2.5 4.9 2.5 6.1 0 9.9-6.9 6.2-11l-1.6-1.7 2.4-6.4c1.4-3.5 3.6-8.4 5.1-10.9l2.6-4.5.1 19.5c.1 20 1.6 37.1 3.4 37.7 3.4 1 3.8-1.2 2.5-15.1-.8-8.5-1.1-20.6-.8-32.5.6-21.1.2-23.2-4.6-19.6M63 64.5c0 .3-.2.5-.5.5s-.5-.2-.5-.5.2-.5.5-.5.5.2.5.5m15 24.1c0 1.5-3.4 3.6-4.4 2.7-1.1-1.1-.6-5.1.7-5.6 1.5-.5 3.7 1.1 3.7 2.9m19-.7c0 1.1-.5 2.3-1.1 2.7-1.5.9-3.3-1.2-2.6-3 .9-2.3 3.7-2 3.7.3"/></svg>