<svg xmlns="http://www.w3.org/2000/svg" version="1.0" viewBox="0 0 168 168"><path d="M76.5 52.8c-16.3 4.2-26 26-18.7 42.4C62.1 105 73.9 114 82.4 114c9.7 0 21.9-7.5 27.3-16.7l2.5-4.4-.4-8.7c-.8-15.6-8.9-28.3-20.2-31.7-5.9-1.8-7.3-1.8-15.1.3M91.8 58c4 1.8 4.9 4 1.8 4-.7 0-2.1 2-3.1 4.5-.9 2.5-2.8 5.3-4.1 6.2-3.3 2.1-3 4.2.6 4.9 1.7.4 3 .9 3 1.3 0 .3.9 1.7 1.9 3.1 2.2 2.7 5.3 1.5 4.4-1.8-.5-2 1.7-4.2 5.9-6l2.7-1.1 1.2 4.2c3.9 14.7-1.6 25.3-15.5 30-9.4 3.2-16 1.4-22.9-6.2-4.9-5.4-6.8-9.4-7.4-15.6C58.4 66.8 76.5 51 91.8 58m11.3 11.2c1.4 2.5-.6 2.3-3.1-.2-1.1-1.1-2-3-2-4.3v-2.2l2.1 2.5c1.1 1.4 2.4 3.3 3 4.2M96 71.3c0 1.4-2 3.7-3.2 3.7s-1-2.4.4-3.8c1.6-1.6 2.8-1.5 2.8.1"/></svg>