<svg xmlns="http://www.w3.org/2000/svg" version="1.0" viewBox="0 0 168 168"><path d="M63.6 53.9c-2.8 3-1.8 9.2 1.7 10.9l2.7 1.3v5.4c0 2.9.3 6 .6 6.9.4 1 .1 1.6-.8 1.6-5 0-6.5 8.9-2 11.8l2.7 1.7.4 10.5c.3 10.9.9 12.7 3.5 11.7 1.8-.7 2.1-9.4.7-18.2l-.8-4.9 2.3-1.9c1.3-1 2.4-2.7 2.4-3.7 0-1.5 1.1-1.8 7.3-2.2 19-1 29.5-14.2 19.9-25-3.7-4.1-11.7-5.8-20.8-4.5l-6.3.9-2.7-2.1c-3.4-2.6-8.5-2.7-10.8-.2m7.2 3.3c1.9 1.9 1.4 3.5-1.2 4-2.9.6-4.3-1.7-2.5-3.8 1.4-1.7 2.2-1.7 3.7-.2m23.1 2.9c8.9 2 11.6 8.8 5.7 14.3-4.7 4.5-13.7 6.5-25.2 5.7-.7-.1-1.2-2.5-1.3-6.2-.1-3.4-.3-6.4-.6-6.9-.9-1.5 5.2-5.5 10-6.6 6.5-1.5 6.3-1.5 11.4-.3M72 86c0 1.3-.7 2-1.9 2-2.5 0-3.8-2-2-3.1 2.3-1.5 3.9-1 3.9 1.1"/></svg>