<svg xmlns="http://www.w3.org/2000/svg" version="1.0" viewBox="0 0 168 168"><path d="M77.5 51.1C61.5 53.2 52 66.4 52 86.5c0 14.6 5.8 24.3 16.8 27.9 10.1 3.4 23.6-1.4 27.6-9.8 2-4.2 4.6-4.8 4.6-1 0 4.3 1.7 6.4 5.3 6.4 2.2 0 4.4 1 6.7 3 3.7 3.1 6.4 3.8 7.6 1.8.5-.7-.7-2.4-2.8-4.2-3-2.7-3.4-3.6-3-6.7.5-4.4-4-8.5-8.4-7.6l-2.6.5.5-3.7c.3-2 1.1-6.5 1.8-10.1 3.4-18.1-11.1-34.3-28.6-31.9m11.3 6.3c7.1 3.7 13.2 13.7 13.2 21.4 0 7.4-.5 7.9-7 7.8-3.2-.1-6.5-.8-7.4-1.5-4.1-3.4-6 1.2-2.1 4.9 1.6 1.5 2.3 3 1.9 4.2-.3 1.2.5 2.9 2.6 4.9l3.1 3.2-2.3 2.4c-3.4 3.7-7.1 5.3-13.5 5.9l-5.8.5-4.9-3.3c-7.4-5-9.1-9-9.1-21.8 0-15.6 3.5-22.7 14-27.9 4.8-2.4 13.4-2.7 17.3-.7M97 92l2.5 1.9-1.6 1.7c-2.3 2.2-5.9 1-5.9-2 0-4 1.3-4.5 5-1.6m12.8 11.3c.2 1.2-.3 1.7-1.7 1.7-1.5 0-2.1-.6-2.1-2.1 0-2.5 3.3-2.2 3.8.4"/></svg>