<svg xmlns="http://www.w3.org/2000/svg" version="1.0" viewBox="0 0 168 168"><path d="M71.5 49.5c-2.7.7-6.5 1.1-8.3.8l-3.4-.6.7 12.9.7 12.9-2.3 1c-4.5 2-4.2 9.7.4 11.4 2.7 1 3.7 7.1 3.7 22.2 0 7.5 1 10.2 3.6 9.2 1.1-.4 1.2-3.4.7-15.9l-.6-15.5 1.9-1.7c1.1-1.1 3.6-1.8 6.2-1.8 5.1-.2 11.1 5.2 16.9 15.1 7.2 12.3 13.3 19.6 15.4 18.5 2.7-1.5 2.4-2.4-2.5-8.9-2.5-3.2-6.2-8.7-8.2-12.2-2.1-3.5-4.4-7-5.1-7.7-1.6-1.6-1.6-2.1.2-5.2.8-1.4 1.4-3.3 1.5-4.4 0-1 1.1-3.1 2.5-4.8 12.4-14.7-3-31-24-25.3m20.2 8c6.4 7.5 2.1 18-6.8 16.7-.9-.2-2.7 1-3.9 2.5-2.1 2.7-10 5.1-10 3.1 0-.5-1.2-2-2.7-3.4l-2.8-2.6V55.6l4.5-1.3c2.5-.7 7.6-1.1 11.5-.9l7 .4zM63.5 79.2c3.6 1.6 3.3 4.8-.5 4.8-2.7 0-3-.3-3-3 0-3.4 0-3.4 3.5-1.8m24.3 1.5c-.2 1-1 1.8-1.8 1.8s-1.6-.8-1.8-1.8c-.2-1.2.3-1.7 1.8-1.7s2 .5 1.8 1.7"/></svg>