<svg xmlns="http://www.w3.org/2000/svg" version="1.0" viewBox="0 0 168 168"><path d="M73.5 52.9c-5.8 3.6-7.5 6.4-9 14.7-.8 4.4-1.6 8.6-1.9 9.4-1.3 3.6 4.6 7.3 10.2 6.4 4.4-.7 7.3.5 10.6 4.2 2.2 2.5 6.1 3.2 10.6 2 6.6-1.8 9.3 9.1 3.9 16.3-2.5 3.3-12.4 7.1-18.8 7.1-3.9 0-10.1-3.8-13.6-8.4-4-5.3-7.5-2.3-4.3 3.7 2.8 5.4 13 10.2 19.6 9.2 13.3-1.9 18.9-4.8 23.3-12 3.3-5.2 1.9-16.3-2.2-18.6-1-.5-1.9-2-1.9-3.3s-1-3.6-2.2-5.1l-2.1-2.7-5.3.4c-3.1.3-6.2 1.2-7.2 2.2-2.4 2.1-5.2 1.1-5.2-1.9 0-2.7-3.3-7.2-6-8-5.1-1.6-.2-10.4 6.8-12.4 5.9-1.7 14.2 2.1 14.2 6.5 0 3.4 4.3 3.1 4.8-.4C99 54 82.1 47.5 73.5 52.9m-.6 21.9c1.7 3.2-2.1 5.6-4.7 3-.9-.9-.8-1.6.5-3 2-2.3 3-2.3 4.2 0M94 82c1.1 2-1 4-4.4 4-1.8 0-3.5-2.9-2.9-4.8.7-2 6.1-1.5 7.3.8"/></svg>