<svg xmlns="http://www.w3.org/2000/svg" version="1.0" viewBox="0 0 168 168"><path d="M77.7 48c-1.4 1.1-2.9 2.9-3.2 4-.6 1.8-1.6 2-8.8 2-5.2.1-8.8.5-9.9 1.4-3.8 2.8-2 3.6 8.1 3.6 14.2 0 16.9 1.7 17 10.8.1 3.6-.5 4.9-2.9 7.4-3.9 3.9-3.8 6.3.5 10.4l3.5 3.2 1 11.7c1.1 12.5 1.4 13.5 3.5 13.5s2.5-2.7 1.5-9.8C86.8 97.5 86.7 87 88 87c.5 0 1.4-1.7 2.1-3.9 1.2-4.2 0-8.1-2.5-8.1-2 0-2.8-12.7-1-15.6 1.6-2.4 6.6-3.4 17-3.4 6.8 0 8.9-1.4 5.8-3.7-1.4-1.1-4.1-1.4-11.1-1l-9.1.4-2.5-2.8c-3-3.4-5.5-3.6-9-.9m5.8 5c.8 2.6-.1 4-2.6 4-2.2 0-3.4-2.2-2.5-4.5.8-2.2 4.4-1.8 5.1.5M86 81.5c0 2.9-4.3 3.7-5.4.9-.9-2.2.1-3.4 3-3.4 1.9 0 2.4.5 2.4 2.5"/></svg>