<svg xmlns="http://www.w3.org/2000/svg" version="1.0" viewBox="0 0 168 168"><path d="M106.4 50.4c-.4.9-.1 6.5.5 12.4s1.1 14.9 1.1 19.9v9.2l-2.9-.5c-2.3-.5-3.8 0-6.5 2.2-4.2 3.4-4.8 7.6-1.6 11.7l2 2.5-4.5 1.1c-12 3-22.3-2-20.2-9.9.8-3.1-2.9-6.9-7.2-7.6l-3.8-.6-.7-19.6c-.6-19.1-1.3-22.9-3.7-20.5-1.1 1.1-1.4 35.6-.4 37.4.3.4.7 4.1.9 8.3.5 9 1.5 10.6 6.7 10.6 2.8 0 4.7.8 7.1 2.9 6.3 5.5 15.5 6.5 23.3 2.6 10.9-5.6 12.5-6.6 13.7-8.7 1.6-2.8 1.7-46.6.2-51.2-1.2-3.4-3.1-4.5-4-2.2m-1.2 46.3c2.6 2.3 2.3 5.1-.7 5.9-4.6 1.1-6.8-2.1-3.8-5.6 2.1-2.4 2.2-2.4 4.5-.3m-35.8.8c.9 2.4-.4 4.5-2.9 4.5-3 0-3.9-1.4-2.5-4 1.3-2.3 4.5-2.7 5.4-.5"/></svg>