<svg xmlns="http://www.w3.org/2000/svg" version="1.0" viewBox="0 0 168 168"><path d="M112.4 52.8c-.5.4-2 2.3-3.2 4.3s-3.1 3.9-4.1 4.2c-3.6.9-5.6 5.4-4.2 9.4l1.3 3.4-2.6 4c-1.5 2.3-3.4 3.9-4.5 3.9-3.6 0-6.4 4.9-5.8 10.3.3 4.1 0 5.4-2.4 8.7-3.3 4.6-4.5 4.9-5.5 1.7-.3-1.2-3.1-7.4-6.1-13.7s-6.9-15.3-8.6-20c-3.1-8.7-7-16-8.6-16-2.2 0-3.2 2.9-1.8 5.2.8 1.3 2.9 6.3 4.7 11.2s7 16.9 11.5 26.5c9.5 20.4 10.8 21.4 15.3 12.8 2.6-5.1 6.9-9.9 11.6-13.1l2.8-1.8-.3-5.2c-.4-6.2 2.7-12.8 6.8-14.8 4-1.9 5.8-6.1 4.3-9.8-1-2.5-.9-3.3.9-5.9 3.2-4.5 2.3-7.9-1.5-5.3M109 67c0 1.3-.7 2-2 2s-2-.7-2-2 .7-2 2-2 2 .7 2 2M97.6 88.4c.7 2.8-.1 4.6-2.1 4.6-1.7 0-2.5-2.2-1.8-4.9.7-2.9 3.1-2.7 3.9.3"/></svg>