<svg xmlns="http://www.w3.org/2000/svg" version="1.0" viewBox="0 0 168 168"><path d="M111 56.2c0 1.3-1.1 5.3-2.4 9s-3.4 12.5-4.6 19.7l-2.3 13-4.4-3.7c-3.4-2.9-4.2-4.1-3.7-5.7.4-1.1.7-4 .8-6.5l.1-4.5-3.8-1.9c-2.4-1.1-4.5-3.1-5.4-5.2-2-4.1-4.1-5-6.4-2.7-1.6 1.7-9.3 20.3-12.2 29.4-2 6.4-1.5 7.4-8.5-20.6-1.7-6.6-3.4-14-3.9-16.5-.7-3.6-1.3-4.6-3.2-4.8l-2.3-.4.7 5.4c1 8.1 11.4 47.9 13.1 50.6l1.6 2.4 1.9-1.8c1-.9 2.9-4.9 4-8.8 2.7-9 9.7-26.8 11.1-28.1 1-1 .8 1.7-.8 8.6-.7 3 2.6 6.9 5.7 6.9 2.4 0 2.9 2.1 1.2 4.7-2.5 3.7-1.3 8.6 2.5 10.4 1.8.9 4.4 2.9 5.7 4.3 2.6 2.8 5.7 3.4 7.2 1.3 1.5-2 4.2-12.4 5.9-23.2.8-5.5 2.6-13.6 4-18 3.4-11.3 3.5-14.9.7-15.3-1.8-.3-2.3.2-2.3 2M89.9 80.4c1.5 1.8.3 4.6-2 4.6-2.5 0-3.5-2.6-1.9-4.5 1.5-1.9 2.4-1.9 3.9-.1M94.1 97c2.8 1.5 2.4 4-.6 4-2 0-2.5-.5-2.5-2.5 0-2.8.3-2.9 3.1-1.5m5.9 8c0 .5-.4 1-1 1-.5 0-1-.5-1-1 0-.6.5-1 1-1 .6 0 1 .4 1 1"/></svg>