<svg xmlns="http://www.w3.org/2000/svg" version="1.0" viewBox="0 0 168 168"><path d="M101.6 54.2C94 67.5 91.7 75 95.5 75c2.2 0 12.7-22 11.3-23.7-1.7-2.1-2.6-1.6-5.2 2.9"/><path d="M61.2 52.2c-1.7 1.7-1.5 2.9 1.2 6.9 3 4.4 9.6 17.3 9.6 18.7 0 .6-.6.9-1.3.6C66.8 77 63.4 88.7 67 91c3 1.9 8.7 1.1 10.7-1.3 2.6-3.3 8.9-4.5 9.8-1.8.9 2.9 5.5 4.2 9.2 2.6 5.7-2.4 7-8 2.7-11.4-3.5-2.8-6-2.6-10 .4-6.2 4.7-12.7 2.8-13-3.9-.1-3.1-8.9-19.4-12.3-22.9-1.3-1.3-1.9-1.5-2.9-.5M97 83.4c0 2.2-1.8 3.9-3.4 3.3-1.9-.7-2.1-4.3-.3-5 1.7-.6 3.7.3 3.7 1.7M74.5 83c1 1.6-.5 5-2.1 5-1.7 0-2.8-2.4-2-4.5.6-1.7 3.2-2 4.1-.5"/><path d="M68.5 99.2c-6.9 11.1-9.7 17-8.7 18 1.9 1.9 4.9-.3 7.3-5.5 1.3-2.8 3.9-7.6 5.6-10.6 2.5-4.1 3-5.8 2.2-6.8-1.8-2.1-2.4-1.6-6.4 4.9m24.6-4.8c-.9 1.1-.6 2.5 1.7 6.2 1.5 2.7 3.1 5.6 3.4 6.5 1 2.7 7.8 12.9 8.6 12.9 3-.1 3.7-2 1.8-5.2-1-1.8-3.7-6.7-5.9-10.8-5.8-10.9-7.3-12.4-9.6-9.6"/></svg>