<svg xmlns="http://www.w3.org/2000/svg" version="1.0" viewBox="0 0 168 168"><path d="M74.5 51.1c-9.8 1-13.9 2.3-13.2 4.2.4 1.4 7 1.5 25.2.2l12-.8-3 3.4c-1.7 1.9-4.3 5.6-5.9 8.2-1.9 2.9-3.7 4.7-4.9 4.7-1 0-3.1 1.3-4.6 2.9l-2.7 2.9-3.8-2.8c-3.8-2.8-6.6-3-6.6-.4 0 1.7 6.1 6.4 8.3 6.4 1 0 1.7.6 1.7 1.4s.2 2.1.5 2.8c.3.8-.3 2.3-1.3 3.3-1 1.1-3.7 4.8-6 8.2-2.3 3.5-6 9-8.2 12.3-5.4 8-5.3 8.4 1.8 7.5 12.5-1.6 28.5-1.5 37.9.2 9.6 1.7 12.2 1.2 11-2-.9-2.5-21.9-5.1-35.3-4.4l-11.5.6 4.8-6.7C81.8 87.3 82.1 87 86.2 87H90v2.9c0 3.2 3 6.1 6.3 6.1 1 0 2.8 1.2 4.1 2.7 1.5 1.7 2.9 2.4 3.9 2 2.4-.9 2.1-4-.4-5.5-1.6-1-1.8-1.7-1-2.5 1.7-1.7 1.3-7.3-.6-9.2-1.2-1.3-2.8-1.6-6.1-1.2l-4.4.5.6-2.3c.3-1.3.2-3.5-.4-5-1.1-2.9 1-7 8-15.5 5.1-6.2 5.2-6.6 3.4-8.4s-13.1-2-28.9-.5m12.9 25.7c.8 1.3-.4 5-1.8 5.5-2.3.9-3.7-.9-3-3.6.6-2.6 3.6-3.8 4.8-1.9m11.4 12c.3 1.6-.2 2.2-1.6 2.2-2.5 0-3.1-.7-2.5-3.1.7-2.7 3.7-2 4.1.9"/></svg>