<svg xmlns="http://www.w3.org/2000/svg" version="1.0" viewBox="0 0 168 168"><path d="M77.7 50.2c-1.3 1.8-5.2 8.4-8.7 14.5-3.4 6.2-6.8 11.3-7.6 11.3-2.6 0-7.3 5.1-8 8.7-.8 4.4 1.7 9.6 5.8 12.1 3.5 2.1 3.6 1.8-1.2 11.9-4.6 9.8-4.9 11.6-1.9 11.1 1.6-.2 3.4-3.1 7.5-12.3 3.3-7.2 6.5-12.7 7.9-13.8 1.4-1 2.5-2.5 2.5-3.3 0-3.4 17.1-.5 21.5 3.6 1.7 1.5 3.6 2.9 4.3 3.1s3.2 4.7 5.5 9.9c3.3 7.5 4.7 9.6 6.5 9.8 2.9.4 2.9.3-2-11.2-3.1-7.4-3.8-10.1-2.9-10.4 5.8-1.9 7-10.5 2.2-15.3-5.6-5.6-16.1-2.8-16.1 4.2 0 2.2-.5 2.3-10.5.8L75 83.8l-2.1-3.4c-1.1-1.9-2.5-3.4-3-3.4-1.8 0-.8-2.4 4.9-12.6 6.1-11.2 6.5-11.5 8.3-8.2 1.3 2.6 9.8 15.8 11 17.2s3.9-1.3 3.2-3.2c-.4-.9-2.6-4.9-5.1-8.7-2.4-3.9-5-7.9-5.8-9.1-3.7-6.1-5.5-6.5-8.7-2.2M67 81c2.9 1.5 3.8 7.9 1.4 9.7-1.8 1.3-8 .9-9.8-.7-1.6-1.5.3-7.6 2.7-8.8 2.9-1.4 3.5-1.4 5.7-.2m38 2c3.4 3.4 2.7 7.5-1.5 8.7l-3.5 1.1-1.3-2.6c-3.1-6.4 1.7-11.8 6.3-7.2"/></svg>